<svg width="25" height="17" viewBox="0 0 25 17" fill="none" xmlns="http://www.w3.org/2000/svg">
<path d="M5.19559 9.68124L9.42967 13.914L9.42972 13.914C9.65143 14.1357 9.77599 14.4364 9.77599 14.75C9.77599 15.0635 9.65143 15.3642 9.42972 15.586C9.208 15.8077 8.9073 15.9322 8.59375 15.9322C8.2802 15.9322 7.9795 15.8077 7.75778 15.586L1.50814 9.33631C1.39813 9.22659 1.31086 9.09623 1.25131 8.95272C1.19176 8.80921 1.1611 8.65537 1.1611 8.49999C1.1611 8.34461 1.19176 8.19077 1.25131 8.04726C1.31086 7.90375 1.39813 7.77339 1.50814 7.66367L7.75778 1.41402C7.9795 1.19231 8.2802 1.06775 8.59375 1.06775C8.9073 1.06775 9.208 1.19231 9.42972 1.41402C9.65143 1.63574 9.77599 1.93644 9.77599 2.24999C9.77599 2.56354 9.65143 2.86425 9.42972 3.08596L9.42967 3.086L5.19559 7.31874L22.6562 7.31874C22.9695 7.31874 23.27 7.44319 23.4915 7.66472L23.2098 7.94642L23.4915 7.66472C23.713 7.88625 23.8375 8.1867 23.8375 8.49999C23.8375 8.81328 23.713 9.11373 23.4915 9.33526C23.27 9.55679 22.9695 9.68124 22.6562 9.68124H5.19559Z" fill="white" stroke="white" stroke-width="0.8"/>
</svg>
