<svg width="15" height="13" viewBox="0 0 15 13" fill="none" xmlns="http://www.w3.org/2000/svg">
<path d="M1.61435 2.45748C2.60815 1.38011 4.11194 0.833984 6.08323 0.833984H6.79156V2.83078L6.22206 2.94482C5.25165 3.1389 4.57661 3.52069 4.21536 4.08098C4.02686 4.38283 3.91996 4.72843 3.90511 5.08398H6.08323C6.27109 5.08398 6.45126 5.15861 6.5841 5.29145C6.71694 5.42429 6.79156 5.60446 6.79156 5.79232V10.7507C6.79156 11.5319 6.15619 12.1673 5.3749 12.1673H1.1249C0.937035 12.1673 0.756868 12.0927 0.624029 11.9599C0.491191 11.827 0.416563 11.6468 0.416563 11.459V7.91732L0.418688 5.84969C0.412313 5.77107 0.27773 3.90815 1.61435 2.45748ZM13.1666 12.1673H8.91656C8.7287 12.1673 8.54853 12.0927 8.4157 11.9599C8.28286 11.827 8.20823 11.6468 8.20823 11.459V7.91732L8.21036 5.84969C8.20398 5.77107 8.0694 3.90815 9.40602 2.45748C10.3998 1.38011 11.9036 0.833984 13.8749 0.833984H14.5832V2.83078L14.0137 2.94482C13.0433 3.1389 12.3683 3.52069 12.007 4.08098C11.8185 4.38283 11.7116 4.72843 11.6968 5.08398H13.8749C14.0628 5.08398 14.2429 5.15861 14.3758 5.29145C14.5086 5.42429 14.5832 5.60446 14.5832 5.79232V10.7507C14.5832 11.5319 13.9479 12.1673 13.1666 12.1673Z" fill="#0A72AD"/>
</svg>
